#!OML:ASF F:\VICON\USERDATA\INSTALL\rory3\rory3.ASF
:FULLY-SPECIFIED
:DEGREES
934
root -2.5476 25.7005 -4.18639 178.632 179.504 -175.413
lowerback 10.9453 0.811847 -1.79944
upperback 3.27509 0.830116 -1.52363
thorax -2.72277 0.417912 -0.675888
lowerneck -3.7109 -0.440356 -10.9858
upperneck 28.7103 -1.01242 7.39872
head 9.73398 -0.846688 4.44198
rclavicle 9.19379e-016 -1.53064e-014
rhumerus -29.9797 11.6636 -85.0621
rradius 40.6223
rwrist 14.0382
rhand -28.9515 5.92365
rfingers 7.12502
rthumb -2.30487 -24.0436
lclavicle 9.19379e-016 -1.53064e-014
lhumerus -31.4796 17.0899 74.9615
lradius 32.9254
lwrist 4.92231
lhand -24.2627 30.811
lfingers 7.12502
lthumb 2.22362 60.7791
rfemur -15.5675 15.2531 21.8661
rtibia 40.8209
rfoot -15.8485 -8.04896
rtoes -3.01534
lfemur -35.4749 13.9272 -19.4032
ltibia 100.811
lfoot -11.3319 2.24719
ltoes -13.5928
935
root -2.55757 25.6906 -4.15218 178.581 179.49 -175.37
lowerback 11.0127 0.807004 -1.82587
upperback 3.31438 0.818563 -1.55803
thorax -2.71871 0.412158 -0.695865
lowerneck -3.6007 -0.418739 -11.3433
upperneck 28.7777 -1.06001 7.83029
head 9.74189 -0.86585 4.65909
rclavicle 9.24349e-015 6.36111e-015
rhumerus -29.9254 11.6937 -85.0629
rradius 40.4845
rwrist 13.9587
rhand -28.9742 5.87647
rfingers 7.12502
rthumb -2.32675 -24.0906
lclavicle 9.24349e-015 6.36111e-015
lhumerus -31.311 17.0602 75.0744
lradius 32.9715
lwrist 4.98284
lhand -24.6758 30.2643
lfingers 7.12502
lthumb 1.82466 60.2362
rfemur -15.6239 14.9758 21.874
rtibia 41.2161
rfoot -15.9646 -7.81404
rtoes -2.93577
lfemur -35.8017 13.543 -19.3971
ltibia 100.375
lfoot -11.6923 2.27285
ltoes -11.3538
936
root -2.56917 25.6773 -4.11887 178.534 179.509 -175.243
lowerback 11.0975 0.797056 -1.98032
upperback 3.31081 0.783662 -1.61795
thorax -2.76984 0.395314 -0.667953
lowerneck -4.00476 -0.665414 -12.9982
upperneck 29.6018 -1.59465 9.47454
head 10.1967 -1.13534 5.55147
rclavicle 3.23025e-016 1.88845e-015
rhumerus -29.966 11.7263 -85.1282
rradius 40.3904
rwrist 14.0406
rhand -28.9794 5.64975
rfingers 7.12502
rthumb -2.33183 -24.3173
lclavicle 3.23025e-016 1.88845e-015
lhumerus -31.3018 17.0015 75.1103
lradius 33.0841
lwrist 5.0717
lhand -24.7976 29.5554
lfingers 7.12502
lthumb 1.70703 59.5283
rfemur -15.6968 14.7648 21.7938
rtibia 41.6222
rfoot -16.1242 -7.59523
rtoes -2.87419
lfemur -36.1505 13.1963 -19.5198
ltibia 99.8121
lfoot -11.9265 2.26843
ltoes -9.60016
937
root -2.58331 25.6592 -4.08864 178.504 179.628 -175.321
lowerback 11.1062 0.852714 -1.96872
upperback 3.32264 0.858373 -1.62165
thorax -2.76235 0.432286 -0.688277
lowerneck -3.2024 -0.294599 -11.206
upperneck 28.7476 -0.959731 7.8792
head 9.64062 -0.805675 4.65666
rclavicle -1.97045e-014 -1.27222e-014
rhumerus -29.9791 11.5255 -85.1352
rradius 40.2961
rwrist 14.2327
rhand -29.0556 5.51766
rfingers 7.12502
rthumb -2.40536 -24.4485
lclavicle -1.97045e-014 -1.27222e-014
lhumerus -31.2609 16.8948 75.2083
lradius 33.2146
lwrist 4.98672
lhand -24.4582 30.0819
lfingers 7.12502
lthumb 2.03488 60.052
rfemur -15.8055 14.7101 21.9544
rtibia 42.024
rfoot -16.2641 -7.44823
rtoes -3.03912
lfemur -36.634 12.9873 -19.3972
ltibia 99.1811
lfoot -11.9983 2.22172
ltoes -9.08213
938
root -2.59497 25.6453 -4.05856 178.487 179.781 -175.283
lowerback 11.1064 0.929641 -2.05051
upperback 3.32587 0.949932 -1.65728
thorax -2.75994 0.477829 -0.691453
lowerneck -3.14557 -0.331082 -10.7367
upperneck 28.6083 -0.954395 7.41464
head 9.57898 -0.798553 4.4009
rclavicle -2.45002e-014 1.55052e-014
rhumerus -29.9887 11.3797 -85.1021
rradius 40.1637
rwrist 14.3169
rhand -28.987 5.5663
rfingers 7.12502
rthumb -2.33912 -24.4006
lclavicle -2.45002e-014 1.55052e-014
lhumerus -31.1792 16.6452 75.335
lradius 33.2849
lwrist 5.11441
lhand -24.1314 30.6305
lfingers 7.12502
lthumb 2.35045 60.5973
rfemur -15.945 14.6025 21.9753
rtibia 42.4704
rfoot -16.3688 -7.27642
rtoes -3.35737
lfemur -37.139 12.7403 -19.4494
ltibia 98.402
lfoot -11.9063 2.32017
ltoes -9.58829
939
root -2.60462 25.6342 -4.0267 178.464 179.938 -175.208
lowerback 11.1623 0.985142 -2.13719
upperback 3.32862 1.00977 -1.71648
thorax -2.78819 0.507805 -0.713206
lowerneck -3.10347 -0.362403 -10.9717
upperneck 28.6142 -1.03777 7.66385
head 9.58198 -0.83813 4.52509
rclavicle -9.83984e-015 4.52235e-014
rhumerus -29.9387 11.1643 -85.0894
rradius 39.9726
rwrist 14.4874
rhand -28.9739 5.57919
rfingers 7.12502
rthumb -2.32653 -24.3879
lclavicle -9.83984e-015 4.52235e-014
lhumerus -31.098 16.1685 75.5006
lradius 33.4356
lwrist 5.69506
lhand -24.0494 30.3834
lfingers 7.12502
lthumb 2.42961 60.3493
rfemur -16.0791 14.4774 21.9457
rtibia 42.9681
rfoot -16.5599 -7.01094
rtoes -3.24812
lfemur -37.5259 12.4023 -19.5618
ltibia 97.4798
lfoot -11.7949 2.33689
ltoes -9.48101
